<svg xmlns="http://www.w3.org/2000/svg" viewBox="0 0 448 512" class="hover-svg">
    <path d="M448 80v352c0 26.5-21.5 48-48 48H48c-26.5 0-48-21.5-48-48V80c0-26.5 21.5-48 48-48h352c26.5 0 48 21.5 48 48z" fill="none"/> <!-- Remove outer color -->
    <path class="inner" d="M304 296c-14.6 0-27.8 5.6-37.8 14.7l-68-40.8a56.3 56.3 0 0 0 0-27.8l68-40.8C276.2 210.4 289.4 216 304 216c30.9 0 56-25.1 56-56s-25.1-56-56-56-56 25.1-56 56c0 4.8 .6 9.5 1.7 13.9l-68 40.8C171.8 205.6 158.6 200 144 200c-30.9 0-56 25.1-56 56s25.1 56 56 56c14.6 0 27.8-5.6 37.8-14.7l68 40.8a56.1 56.1 0 0 0 -1.7 13.9c0 30.9 25.1 56 56 56s56-25.1 56-56C360 321.1 334.9 296 304 296z" fill="#024873"/> <!-- Change inner color to blue -->
</svg>
